<svg width="210" height="43" viewBox="0 0 210 43" fill="none" xmlns="http://www.w3.org/2000/svg">
<rect x="3.62415" y="21.5878" width="36.4893" height="20.0877" rx="9.5" fill="#FFD5DF"/>
<rect x="3.62415" y="21.5878" width="36.4893" height="20.0877" rx="9.5" stroke="#FFD5DF"/>
<path d="M3 24.6941C3 22.7508 4.67893 21.1755 6.75 21.1755H35.25C37.3211 21.1755 39 22.7508 39 24.6941V36.657C39 38.6002 37.3211 40.1755 35.25 40.1755H6.75C4.67893 40.1755 3 38.6002 3 36.657V24.6941Z" fill="#FFD5DF"/>
<path d="M32.1241 29.5878C32.1241 30.9685 31.0049 32.0878 29.6241 32.0878C28.2434 32.0878 27.1241 30.9685 27.1241 29.5878C27.1241 28.2071 28.2434 27.0878 29.6241 27.0878C31.0049 27.0878 32.1241 28.2071 32.1241 29.5878Z" fill="black"/>
<path d="M22.2593 3.12415L41.5364 24.2119H2.98218L22.2593 3.12415Z" fill="#FFD5DF"/>
<path fill-rule="evenodd" clip-rule="evenodd" d="M22.2593 3.12415L2.98218 24.2119H41.5364L22.2593 3.12415ZM22.2593 4.28172L4.75433 23.4309H39.7643L22.2593 4.28172Z" fill="#FFD5DF"/>
<path fill-rule="evenodd" clip-rule="evenodd" d="M20.0967 0.869498C21.3144 -0.29847 23.2394 -0.288552 24.445 0.891901L43.1897 19.2461C44.4225 20.4532 44.4433 22.4312 43.2362 23.664C42.029 24.8968 40.0511 24.9176 38.8183 23.7105L22.2369 7.47454L5.2867 23.7329C4.04152 24.9272 2.06387 24.886 0.869502 23.6409C-0.324863 22.3957 -0.283662 20.418 0.961527 19.2236L20.0967 0.869498Z" fill="#FFD5DF"/>
<mask id="mask0_17_2342" style="mask-type:alpha" maskUnits="userSpaceOnUse" x="0" y="0" width="45" height="43">
<path d="M3.12415 24.9929C3.12415 22.8362 4.87254 21.0878 7.02928 21.0878H36.7083C38.8651 21.0878 40.6135 22.8362 40.6135 24.9929V38.2704C40.6135 40.4271 38.8651 42.1755 36.7083 42.1755H7.02928C4.87254 42.1755 3.12415 40.4271 3.12415 38.2704V24.9929Z" fill="#E097C1"/>
<path d="M22.2593 3.12415L41.5364 24.2119H2.98218L22.2593 3.12415Z" fill="#E097C1"/>
<path fill-rule="evenodd" clip-rule="evenodd" d="M20.0967 0.869498C21.3144 -0.29847 23.2394 -0.288552 24.445 0.891901L43.1897 19.2461C44.4225 20.4532 44.4433 22.4312 43.2362 23.664C42.029 24.8968 40.0511 24.9176 38.8183 23.7105L22.2369 7.47454L13.7618 15.6037L5.2867 23.7329C4.04151 24.9272 2.06387 24.886 0.869502 23.6409C-0.324863 22.3957 -0.283662 20.418 0.961527 19.2236L20.0967 0.869498Z" fill="white"/>
</mask>
<g mask="url(#mask0_17_2342)">
<path d="M-7.0293 38.5483L35.6607 -1.56197L47.9612 11.5296L5.2712 51.6399L-7.0293 38.5483Z" fill="#FFA8BC"/>
<path d="M4.68616 51.0447L47.3762 10.9344L59.6767 24.026L16.9867 64.1363L4.68616 51.0447Z" fill="#FB86A0"/>
</g>
<path d="M25.7739 27.7265C25.7739 28.8049 24.8997 29.6791 23.8213 29.6791C22.743 29.6791 21.8688 28.8049 21.8688 27.7265C21.8688 26.6481 22.743 25.7739 23.8213 25.7739C24.8997 25.7739 25.7739 26.6481 25.7739 27.7265Z" fill="black"/>
<path d="M37.4894 27.7265C37.4894 28.8049 36.6152 29.6791 35.5368 29.6791C34.4584 29.6791 33.5842 28.8049 33.5842 27.7265C33.5842 26.6481 34.4584 25.7739 35.5368 25.7739C36.6152 25.7739 37.4894 26.6481 37.4894 27.7265Z" fill="black"/>
<path fill-rule="evenodd" clip-rule="evenodd" d="M35.8766 33.4293C36.2434 33.9624 36.1086 34.6918 35.5756 35.0586C33.588 36.4263 28.4014 38.3103 22.8931 35.4643C22.3183 35.1673 22.093 34.4605 22.3901 33.8857C22.6871 33.3108 23.3938 33.0856 23.9686 33.3826C28.5137 35.731 32.7701 34.1449 34.2474 33.1284C34.7804 32.7616 35.5098 32.8963 35.8766 33.4293Z" fill="black"/>
<path d="M197.37 23.1185H209.882V28.5545H176.001V23.1185H188.56V21.5721H176.938V3.90521H208.945V8.6851H185.748V10.3253H208.476V15.1052H185.748V16.7922H208.945V21.5721H197.37V23.1185ZM176.938 35.5368V30.1477H208.945V39.0515H200.135V35.5368H176.938Z" fill="#181818"/>
<path d="M161.547 3.43665H170.357V22.6499H161.547V3.43665ZM157.798 22.6499C155.955 22.6499 154.19 22.3063 152.503 21.619C150.816 20.9317 149.332 19.9476 148.051 18.6667C146.739 19.9476 145.24 20.9317 143.553 21.619C141.866 22.3063 140.1 22.6499 138.257 22.6499L136.851 16.0893C138.32 16.0893 139.632 15.6675 140.788 14.824C141.944 13.9493 142.756 12.6215 143.225 10.8408H137.554V3.81154H158.455V10.8408H152.831C153.3 12.6215 154.112 13.9493 155.268 14.824C156.424 15.6675 157.736 16.0893 159.204 16.0893L157.798 22.6499ZM161.594 26.024V24.2901H170.357V39.0515H138.491V24.2901H147.301V26.024H161.594ZM161.594 33.4281V31.6474H147.301V33.4281H161.594Z" fill="#181818"/>
<path d="M123.341 3.43665H132.151V22.6499H123.341V3.43665ZM109.61 18.7604C108.36 20.0101 106.923 20.9785 105.299 21.6658C103.706 22.3219 102.034 22.6499 100.285 22.6499L98.4102 15.6207C100.316 15.6207 101.925 14.9334 103.237 13.5588C104.549 12.1529 105.205 10.0754 105.205 7.32616V3.90526H113.968V7.32616C113.968 10.0754 114.624 12.1529 115.936 13.5588C117.249 14.9334 118.857 15.6207 120.763 15.6207L118.889 22.6499C117.139 22.6499 115.452 22.3219 113.828 21.6658C112.234 20.9785 110.828 20.0101 109.61 18.7604ZM100.285 39.0515V24.3838H132.151V39.0515H100.285ZM109.095 30.7101V32.7252H123.341V30.7101H109.095Z" fill="#181818"/>
<path d="M60.1282 13.9805V15.3863C60.1282 18.8541 61.0185 21.4783 62.7993 23.2591C64.58 25.0398 67.2043 25.9302 70.672 25.9302C74.1398 25.9302 76.7641 25.0398 78.5448 23.2591C80.3256 21.4783 81.2159 18.8541 81.2159 15.3863V13.9805C81.2159 10.5127 80.3256 7.88844 78.5448 6.1077C76.7641 4.32696 74.1398 3.43658 70.672 3.43658C67.2043 3.43658 64.58 4.32696 62.7993 6.1077C61.0185 7.88844 60.1282 10.5127 60.1282 13.9805ZM93.0251 3.43658V10.8876H96.5397V17.9168H93.0251V27.0549H84.2151V3.43658H93.0251ZM69.0319 17.2608V12.106C69.0319 11.0126 69.5786 10.4658 70.672 10.4658C71.7655 10.4658 72.3122 11.0126 72.3122 12.106V17.2608C72.3122 18.3542 71.7655 18.9009 70.672 18.9009C69.5786 18.9009 69.0319 18.3542 69.0319 17.2608ZM61.0654 27.0549H69.8754V31.9753H93.0251V39.0046L61.0654 39.0515V27.0549Z" fill="#181818"/>
</svg>
