<svg width="48" height="48" viewBox="0 0 48 48" fill="none" xmlns="http://www.w3.org/2000/svg">
<path d="M36 20H28V12C28 10.9391 27.5786 9.92172 26.8284 9.17157C26.0783 8.42143 25.0609 8 24 8C22.9391 8 21.9217 8.42143 21.1716 9.17157C20.4214 9.92172 20 10.9391 20 12L20.142 20H12C10.9391 20 9.92172 20.4214 9.17157 21.1716C8.42143 21.9217 8 22.9391 8 24C8 25.0609 8.42143 26.0783 9.17157 26.8284C9.92172 27.5786 10.9391 28 12 28L20.142 27.858L20 36C20 37.0609 20.4214 38.0783 21.1716 38.8284C21.9217 39.5786 22.9391 40 24 40C25.0609 40 26.0783 39.5786 26.8284 38.8284C27.5786 38.0783 28 37.0609 28 36V27.858L36 28C37.0609 28 38.0783 27.5786 38.8284 26.8284C39.5786 26.0783 40 25.0609 40 24C40 22.9391 39.5786 21.9217 38.8284 21.1716C38.0783 20.4214 37.0609 20 36 20Z" fill="#FFA8BC"/>
</svg>
